# xmcd
#
# Track frame offsets:
#	150
#	39313
#	95778
#	138384
#
# Disc length: 2382 seconds
#
# Revision: 1
# Processed by: cddbd v1.5.2PL0 Copyright (c) Steve Scherf et al.
# Submitted via: audiograbber 1.83.01
#
DISCID=30094c04
DTITLE=Arbor Ira - Zerfall
DYEAR=2013
DGENRE=Doom Metal
TTITLE0=Zerfall
TTITLE1=When Dark Arises
TTITLE2=#2134
TTITLE3=Albatros
EXTD=
EXTT0=
EXTT1=
EXTT2=
EXTT3=
PLAYORDER=
